<?xml version="1.0" encoding="utf-8"?>
<!-- Generator: Adobe Illustrator 26.0.3, SVG Export Plug-In . SVG Version: 6.00 Build 0)  -->
<svg version="1.1" id="Layer_1" xmlns="http://www.w3.org/2000/svg" xmlns:xlink="http://www.w3.org/1999/xlink" x="0px" y="0px"
	 viewBox="0 0 100 100" style="enable-background:new 0 0 100 100;" xml:space="preserve">
<style type="text/css">
	.st0{fill:#25424F;}
</style>
<g id="background">
</g>
<g id="tracer">
</g>
<g id="icon">
	<path class="st0" d="M77,10.8h-6.8V4.1c0-1.1-0.4-2.1-1.2-2.9C68.3,0.4,67.3,0,66.2,0c-1.1,0-2.1,0.4-2.9,1.2
		c-0.8,0.8-1.2,1.8-1.2,2.9v6.8H37.8V4.1c0-1.1-0.4-2.1-1.2-2.9C35.9,0.4,34.9,0,33.8,0s-2.1,0.4-2.9,1.2c-0.8,0.8-1.2,1.8-1.2,2.9
		v6.8H23c-3.9,0-7.7,1.6-10.5,4.4C9.7,18,8.1,21.7,8.1,25.7v59.5c0,3.9,1.6,7.7,4.4,10.5C15.2,98.4,19,100,23,100H77
		c3.9,0,7.7-1.6,10.5-4.4c2.8-2.8,4.4-6.6,4.4-10.5V25.7c0-3.9-1.6-7.7-4.4-10.5C84.8,12.4,81,10.8,77,10.8z M23,18.9h6.8v6.8
		c0,1.1,0.4,2.1,1.2,2.9c0.8,0.8,1.8,1.2,2.9,1.2s2.1-0.4,2.9-1.2c0.8-0.8,1.2-1.8,1.2-2.9v-6.8h24.3v6.8c0,1.1,0.4,2.1,1.2,2.9
		c0.8,0.8,1.8,1.2,2.9,1.2c1.1,0,2.1-0.4,2.9-1.2c0.8-0.8,1.2-1.8,1.2-2.9v-6.8H77c1.8,0,3.5,0.7,4.8,2c1.3,1.3,2,3,2,4.8v14.9H16.2
		V25.7c0-1.8,0.7-3.5,2-4.8C19.5,19.6,21.2,18.9,23,18.9z M77,91.9H23c-1.8,0-3.5-0.7-4.8-2c-1.3-1.3-2-3-2-4.8V48.6h67.6v36.5
		c0,1.8-0.7,3.5-2,4.8C80.5,91.2,78.8,91.9,77,91.9z"/>
	<path class="st0" d="M60.8,67.6h-6.8v-6.8c0-1.1-0.4-2.1-1.2-2.9c-0.8-0.8-1.8-1.2-2.9-1.2c-1.1,0-2.1,0.4-2.9,1.2
		c-0.8,0.8-1.2,1.8-1.2,2.9v6.8h-6.8c-1.1,0-2.1,0.4-2.9,1.2c-0.8,0.8-1.2,1.8-1.2,2.9s0.4,2.1,1.2,2.9c0.8,0.8,1.8,1.2,2.9,1.2h6.8
		v6.8c0,1.1,0.4,2.1,1.2,2.9c0.8,0.8,1.8,1.2,2.9,1.2c1.1,0,2.1-0.4,2.9-1.2c0.8-0.8,1.2-1.8,1.2-2.9v-6.8h6.8
		c1.1,0,2.1-0.4,2.9-1.2c0.8-0.8,1.2-1.8,1.2-2.9s-0.4-2.1-1.2-2.9C62.9,68,61.9,67.6,60.8,67.6z"/>
</g>
</svg>
